Cars 2 2011 CAM XVID UnKnOwN


Encoded By .......:UnKnOwN                                                      
Runtime ..........:1:34                                                        
IMDb URL .........:http://www.imdb.com/title/tt1216475/                        
Language .........:English                                                    
File Size ........:1.12gb                                                      

Release Date ......... 2011
Source       ......... Russian/FU
File Type    ......... Single AVI
PS3 Compatible ....... Get a XBOX
Genre        ......... Kids/Comedy


Video
ID                               : 0
Format                           : MPEG-4 Visual
Format profile                   : Advanced Simple@L5
Format settings, BVOP            : Yes
Format settings, QPel            : No
Format settings, GMC             : No warppoints
Format settings, Matrix          : Custom
Codec ID                         : XVID
Codec ID/Hint                    : XviD
Duration                         : 1h 34mn
Bit rate                         : 1 562 Kbps
Width                            : 640 pixels
Height                           : 272 pixels
Display aspect ratio             : 2.35:1
Frame rate                       : 25.000 fps
Color space                      : YUV
Chroma subsampling               : 4:2:0
Bit depth                        : 8 bits
Scan type                        : Progressive
Bits/(Pixel*Frame)               : 0.359
Stream size                      : 1.03 GiB (92%)
Writing library                  : XviD 1.2.1 (UTC 2008-12-04)

Audio
ID                               : 1
Format                           : MPEG Audio
Format version                   : Version 2
Format profile                   : Layer 3
Codec ID                         : 55
Codec ID/Hint                    : MP3
Duration                         : 1h 34mn
Bit rate mode                    : Constant
Bit rate                         : 128 Kbps
Channel(s)                       : 2 channels
Sampling rate                    : 22.05 KHz
Video delay                      : 2ms
Stream size                      : 86.6 MiB (8%)
Alignment                        : Split accross interleaves
Interleave, duration             : 497 ms (12.42 video frames)
Interleave, preload duration     : 500 ms
Writing library                  : LAME3.98.4


More Information:

 
http://leetleech.org/images/23852186166919015142.png


Screens:

 
http://leetleech.org/images/95229270982039208811.png
 
http://leetleech.org/images/52885355531663585231.png
 
http://leetleech.org/images/42085662825894107780.png


ENJOY!